<?xml version="1.0" encoding="UTF-8" standalone="no"?><!DOCTYPE svg PUBLIC "-//W3C//DTD SVG 1.1//EN" "http://www.w3.org/Graphics/SVG/1.1/DTD/svg11.dtd"><svg width="100%" height="100%" viewBox="0 0 36184 36184" version="1.1" xmlns="http://www.w3.org/2000/svg" xmlns:xlink="http://www.w3.org/1999/xlink" xml:space="preserve" xmlns:serif="http://www.serif.com/" style="fill-rule:evenodd;clip-rule:evenodd;stroke-linejoin:round;stroke-miterlimit:2;"><g><path d="M30591.7,1425c1105.07,0 2164.88,438.987 2946.28,1220.39c781.402,781.402 1220.39,1841.21 1220.39,2946.28l0,25000c0,1105.07 -438.986,2164.88 -1220.39,2946.28c-781.402,781.402 -1841.21,1220.39 -2946.28,1220.39l-25000,0c-1105.07,0 -2164.88,-438.986 -2946.28,-1220.39c-781.401,-781.402 -1220.39,-1841.21 -1220.39,-2946.28l0,-25000c0,-1105.07 438.987,-2164.88 1220.39,-2946.28c781.402,-781.401 1841.21,-1220.39 2946.28,-1220.39l25000,0Z" style="fill:#fff;"/><g><g><path d="M4369.73,4244.25l-0,27694.8l13722.1,0c7578.69,0 13722.1,-6199.52 13722.1,-13847.4c0,-7647.9 -6143.42,-13847.4 -13722.1,-13847.4l-13722.1,-0Z" style="fill:url(#_Linear1);fill-rule:nonzero;"/><path d="M4369.41,6952.3l0,24986.7l13722.4,0c3389.12,0 6489.66,-1242.67 8884.03,-3297.6c1034.26,-2035.97 1621.93,-4341.63 1621.93,-6787.42c0,-8229.73 -6611.32,-14901.7 -14767.2,-14901.7l-9461.18,0l0.01,0.028l0.01,-0.008Z" style="fill:url(#_Linear2);fill-rule:nonzero;"/><path d="M4369.41,10607.3l0,21331.7l13722.4,0c2417.93,0 4688.39,-632.906 6661.03,-1741.21c485.751,-1474.75 755.227,-3049.14 755.227,-4688.78c0,-8230.33 -6611,-14901.7 -14766.6,-14901.7l-6372.13,0l0.014,0l0.059,-0.01Z" style="fill:url(#_Linear3);fill-rule:nonzero;"/><g><g><path d="M9922.64,27896.1l1405.06,450.029c-94.38,417.529 -243.026,766.303 -445.937,1046.32c-202.912,280.017 -454.783,491.278 -755.616,633.788c-300.832,142.511 -683.654,213.766 -1148.46,213.766c-563.908,-0 -1024.59,-86.878 -1382.05,-260.642c-357.456,-173.763 -665.957,-479.405 -925.498,-916.933c-259.535,-437.528 -389.308,-997.568 -389.308,-1680.11c0,-910.059 228.276,-1609.48 684.83,-2098.26c456.553,-488.785 1102.46,-733.174 1937.7,-733.174c653.566,0 1167.34,140.012 1541.31,420.029c373.97,280.016 651.795,710.047 833.476,1290.08l-1415.67,333.773c-49.549,-167.506 -101.456,-290.019 -155.721,-367.525c-89.664,-130.003 -199.377,-230.012 -329.144,-300.015c-129.774,-70.009 -274.879,-105.007 -435.323,-105.007c-363.355,0 -641.768,155.005 -835.246,465.029c-146.282,230.012 -219.425,591.286 -219.425,1083.82c0,610.044 87.299,1028.19 261.899,1254.46c174.599,226.267 419.984,339.394 736.149,339.394c306.725,0 538.542,-91.254 695.445,-273.767c156.903,-182.513 270.75,-447.529 341.53,-795.05l-0.001,-0.005Z" style="fill:#fff;fill-rule:nonzero;"/><path d="M15298.6,29235l-1826.22,0l-251.278,907.554l-1638.64,0l1950.09,-5497.85l1748.35,0l1950.09,5497.85l-1677.57,0l-254.818,-907.554Zm-336.229,-1188.83l-573.347,-1976.38l-569.807,1976.38l1143.15,0Z" style="fill:#fff;fill-rule:nonzero;"/><path d="M17765.5,24644.6l2381.86,-0c469.533,-0 848.814,67.503 1137.85,202.511c289.029,135.007 527.927,328.769 716.683,581.284c188.755,252.522 325.603,546.286 410.545,881.312c84.935,335.02 127.409,690.043 127.409,1065.07c0,587.542 -63.117,1043.19 -189.35,1366.96c-126.227,323.771 -301.414,595.038 -525.562,813.802c-224.148,218.764 -464.817,364.403 -721.993,436.905c-351.557,100.009 -670.086,150.007 -955.58,150.007l-2381.86,-0l0,-5497.85l-0.002,-0.001Zm1603.25,1245.08l0,3003.95l392.849,0c335.043,0 573.347,-39.379 714.912,-118.138c141.565,-78.752 252.46,-216.265 332.685,-412.525c80.218,-196.261 120.328,-514.411 120.328,-954.437c0,-582.537 -89.658,-981.308 -268.974,-1196.33c-179.323,-215.012 -476.608,-322.518 -891.876,-322.518l-399.924,0l0,-0.002Z" style="fill:#fff;fill-rule:nonzero;"/></g></g></g></g></g><defs><linearGradient id="_Linear1" x1="0" y1="0" x2="1" y2="0" gradientUnits="userSpaceOnUse" gradientTransform="matrix(14822.5,-13411.1,13411.1,14822.5,11290.4,20488.6)"><stop offset="0" style="stop-color:#2a4ced;stop-opacity:1"/><stop offset="0.52" style="stop-color:#2065ed;stop-opacity:1"/><stop offset="1" style="stop-color:#00b7ed;stop-opacity:1"/></linearGradient><linearGradient id="_Linear2" x1="0" y1="0" x2="1" y2="0" gradientUnits="userSpaceOnUse" gradientTransform="matrix(11685.9,-11101,11101,11685.9,11237.1,22087.6)"><stop offset="0" style="stop-color:#385bfe;stop-opacity:1"/><stop offset="0.52" style="stop-color:#2b71fa;stop-opacity:1"/><stop offset="1" style="stop-color:#00b7ed;stop-opacity:1"/></linearGradient><linearGradient id="_Linear3" x1="0" y1="0" x2="1" y2="0" gradientUnits="userSpaceOnUse" gradientTransform="matrix(17911.7,-13817,13817,17911.7,3010.54,29476.3)"><stop offset="0" style="stop-color:#1b41f3;stop-opacity:1"/><stop offset="1" style="stop-color:#00b7ed;stop-opacity:1"/></linearGradient></defs></svg>